<svg width="776" height="60" viewBox="0 0 776 60" fill="none" xmlns="http://www.w3.org/2000/svg">
<g opacity="0.2">
<path d="M774.4 58.6L773 60L767 54L773 48L774.4 49.4L769.825 54L774.4 58.6ZM768.4 58.6L767 60L761 54L767 48L768.4 49.4L763.825 54L768.4 58.6ZM762.4 58.6L761 60L755 54L761 48L762.4 49.4L757.825 54L762.4 58.6Z" fill="#A66F00"/>
<path d="M630.4 58.6L629 60L623 54L629 48L630.4 49.4L625.825 54L630.4 58.6ZM624.4 58.6L623 60L617 54L623 48L624.4 49.4L619.825 54L624.4 58.6ZM618.4 58.6L617 60L611 54L617 48L618.4 49.4L613.825 54L618.4 58.6Z" fill="#A66F00"/>
<path d="M702.4 58.6L701 60L695 54L701 48L702.4 49.4L697.825 54L702.4 58.6ZM696.4 58.6L695 60L689 54L695 48L696.4 49.4L691.825 54L696.4 58.6ZM690.4 58.6L689 60L683 54L689 48L690.4 49.4L685.825 54L690.4 58.6Z" fill="#A66F00"/>
<path d="M558.4 58.6L557 60L551 54L557 48L558.4 49.4L553.825 54L558.4 58.6ZM552.4 58.6L551 60L545 54L551 48L552.4 49.4L547.825 54L552.4 58.6ZM546.4 58.6L545 60L539 54L545 48L546.4 49.4L541.825 54L546.4 58.6Z" fill="#A66F00"/>
<path d="M468.4 58.6L467 60L461 54L467 48L468.4 49.4L463.825 54L468.4 58.6ZM462.4 58.6L461 60L455 54L461 48L462.4 49.4L457.825 54L462.4 58.6ZM456.4 58.6L455 60L449 54L455 48L456.4 49.4L451.825 54L456.4 58.6Z" fill="#A66F00"/>
<path d="M756.4 58.6L755 60L749 54L755 48L756.4 49.4L751.825 54L756.4 58.6ZM750.4 58.6L749 60L743 54L749 48L750.4 49.4L745.825 54L750.4 58.6ZM744.4 58.6L743 60L737 54L743 48L744.4 49.4L739.825 54L744.4 58.6Z" fill="#A66F00"/>
<path d="M612.4 58.6L611 60L605 54L611 48L612.4 49.4L607.825 54L612.4 58.6ZM606.4 58.6L605 60L599 54L605 48L606.4 49.4L601.825 54L606.4 58.6ZM600.4 58.6L599 60L593 54L599 48L600.4 49.4L595.825 54L600.4 58.6Z" fill="#A66F00"/>
<path d="M684.4 58.6L683 60L677 54L683 48L684.4 49.4L679.825 54L684.4 58.6ZM678.4 58.6L677 60L671 54L677 48L678.4 49.4L673.825 54L678.4 58.6ZM672.4 58.6L671 60L665 54L671 48L672.4 49.4L667.825 54L672.4 58.6Z" fill="#A66F00"/>
<path d="M540.4 58.6L539 60L533 54L539 48L540.4 49.4L535.825 54L540.4 58.6ZM534.4 58.6L533 60L527 54L533 48L534.4 49.4L529.825 54L534.4 58.6ZM528.4 58.6L527 60L521 54L527 48L528.4 49.4L523.825 54L528.4 58.6Z" fill="#A66F00"/>
<path d="M450.4 58.6L449 60L443 54L449 48L450.4 49.4L445.825 54L450.4 58.6ZM444.4 58.6L443 60L437 54L443 48L444.4 49.4L439.825 54L444.4 58.6ZM438.4 58.6L437 60L431 54L437 48L438.4 49.4L433.825 54L438.4 58.6Z" fill="#A66F00"/>
<path d="M738.4 58.6L737 60L731 54L737 48L738.4 49.4L733.825 54L738.4 58.6ZM732.4 58.6L731 60L725 54L731 48L732.4 49.4L727.825 54L732.4 58.6ZM726.4 58.6L725 60L719 54L725 48L726.4 49.4L721.825 54L726.4 58.6Z" fill="#A66F00"/>
<path d="M594.4 58.6L593 60L587 54L593 48L594.4 49.4L589.825 54L594.4 58.6ZM588.4 58.6L587 60L581 54L587 48L588.4 49.4L583.825 54L588.4 58.6ZM582.4 58.6L581 60L575 54L581 48L582.4 49.4L577.825 54L582.4 58.6Z" fill="#A66F00"/>
<path d="M666.4 58.6L665 60L659 54L665 48L666.4 49.4L661.825 54L666.4 58.6ZM660.4 58.6L659 60L653 54L659 48L660.4 49.4L655.825 54L660.4 58.6ZM654.4 58.6L653 60L647 54L653 48L654.4 49.4L649.825 54L654.4 58.6Z" fill="#A66F00"/>
<path d="M522.4 58.6L521 60L515 54L521 48L522.4 49.4L517.825 54L522.4 58.6ZM516.4 58.6L515 60L509 54L515 48L516.4 49.4L511.825 54L516.4 58.6ZM510.4 58.6L509 60L503 54L509 48L510.4 49.4L505.825 54L510.4 58.6Z" fill="#A66F00"/>
<path d="M432.4 58.6L431 60L425 54L431 48L432.4 49.4L427.825 54L432.4 58.6ZM426.4 58.6L425 60L419 54L425 48L426.4 49.4L421.825 54L426.4 58.6ZM420.4 58.6L419 60L413 54L419 48L420.4 49.4L415.825 54L420.4 58.6Z" fill="#A66F00"/>
<path d="M720.4 58.6L719 60L713 54L719 48L720.4 49.4L715.825 54L720.4 58.6ZM714.4 58.6L713 60L707 54L713 48L714.4 49.4L709.825 54L714.4 58.6ZM708.4 58.6L707 60L701 54L707 48L708.4 49.4L703.825 54L708.4 58.6Z" fill="#A66F00"/>
<path d="M576.4 58.6L575 60L569 54L575 48L576.4 49.4L571.825 54L576.4 58.6ZM570.4 58.6L569 60L563 54L569 48L570.4 49.4L565.825 54L570.4 58.6ZM564.4 58.6L563 60L557 54L563 48L564.4 49.4L559.825 54L564.4 58.6Z" fill="#A66F00"/>
<path d="M486.4 58.6L485 60L479 54L485 48L486.4 49.4L481.825 54L486.4 58.6ZM480.4 58.6L479 60L473 54L479 48L480.4 49.4L475.825 54L480.4 58.6ZM474.4 58.6L473 60L467 54L473 48L474.4 49.4L469.825 54L474.4 58.6Z" fill="#A66F00"/>
<path d="M648.4 58.6L647 60L641 54L647 48L648.4 49.4L643.825 54L648.4 58.6ZM642.4 58.6L641 60L635 54L641 48L642.4 49.4L637.825 54L642.4 58.6ZM636.4 58.6L635 60L629 54L635 48L636.4 49.4L631.825 54L636.4 58.6Z" fill="#A66F00"/>
<path d="M504.4 58.6L503 60L497 54L503 48L504.4 49.4L499.825 54L504.4 58.6ZM498.4 58.6L497 60L491 54L497 48L498.4 49.4L493.825 54L498.4 58.6ZM492.4 58.6L491 60L485 54L491 48L492.4 49.4L487.825 54L492.4 58.6Z" fill="#A66F00"/>
<path d="M414.4 58.6L413 60L407 54L413 48L414.4 49.4L409.825 54L414.4 58.6ZM408.4 58.6L407 60L401 54L407 48L408.4 49.4L403.825 54L408.4 58.6ZM402.4 58.6L401 60L395 54L401 48L402.4 49.4L397.825 54L402.4 58.6Z" fill="#A66F00"/>
<path d="M396.4 58.6L395 60L389 54L395 48L396.4 49.4L391.825 54L396.4 58.6ZM390.4 58.6L389 60L383 54L389 48L390.4 49.4L385.825 54L390.4 58.6ZM384.4 58.6L383 60L377 54L383 48L384.4 49.4L379.825 54L384.4 58.6Z" fill="#A66F00"/>
<path d="M378.4 58.6L377 60L371 54L377 48L378.4 49.4L373.825 54L378.4 58.6ZM372.4 58.6L371 60L365 54L371 48L372.4 49.4L367.825 54L372.4 58.6ZM366.4 58.6L365 60L359 54L365 48L366.4 49.4L361.825 54L366.4 58.6Z" fill="#A66F00"/>
<path d="M360.4 58.6L359 60L353 54L359 48L360.4 49.4L355.825 54L360.4 58.6ZM354.4 58.6L353 60L347 54L353 48L354.4 49.4L349.825 54L354.4 58.6ZM348.4 58.6L347 60L341 54L347 48L348.4 49.4L343.825 54L348.4 58.6Z" fill="#A66F00"/>
<path d="M774.4 42.6L773 44L767 38L773 32L774.4 33.4L769.825 38L774.4 42.6ZM768.4 42.6L767 44L761 38L767 32L768.4 33.4L763.825 38L768.4 42.6ZM762.4 42.6L761 44L755 38L761 32L762.4 33.4L757.825 38L762.4 42.6Z" fill="#A66F00"/>
<path d="M630.4 42.6L629 44L623 38L629 32L630.4 33.4L625.825 38L630.4 42.6ZM624.4 42.6L623 44L617 38L623 32L624.4 33.4L619.825 38L624.4 42.6ZM618.4 42.6L617 44L611 38L617 32L618.4 33.4L613.825 38L618.4 42.6Z" fill="#A66F00"/>
<path d="M702.4 42.6L701 44L695 38L701 32L702.4 33.4L697.825 38L702.4 42.6ZM696.4 42.6L695 44L689 38L695 32L696.4 33.4L691.825 38L696.4 42.6ZM690.4 42.6L689 44L683 38L689 32L690.4 33.4L685.825 38L690.4 42.6Z" fill="#A66F00"/>
<path d="M558.4 42.6L557 44L551 38L557 32L558.4 33.4L553.825 38L558.4 42.6ZM552.4 42.6L551 44L545 38L551 32L552.4 33.4L547.825 38L552.4 42.6ZM546.4 42.6L545 44L539 38L545 32L546.4 33.4L541.825 38L546.4 42.6Z" fill="#A66F00"/>
<path d="M468.4 42.6L467 44L461 38L467 32L468.4 33.4L463.825 38L468.4 42.6ZM462.4 42.6L461 44L455 38L461 32L462.4 33.4L457.825 38L462.4 42.6ZM456.4 42.6L455 44L449 38L455 32L456.4 33.4L451.825 38L456.4 42.6Z" fill="#A66F00"/>
<path d="M756.4 42.6L755 44L749 38L755 32L756.4 33.4L751.825 38L756.4 42.6ZM750.4 42.6L749 44L743 38L749 32L750.4 33.4L745.825 38L750.4 42.6ZM744.4 42.6L743 44L737 38L743 32L744.4 33.4L739.825 38L744.4 42.6Z" fill="#A66F00"/>
<path d="M612.4 42.6L611 44L605 38L611 32L612.4 33.4L607.825 38L612.4 42.6ZM606.4 42.6L605 44L599 38L605 32L606.4 33.4L601.825 38L606.4 42.6ZM600.4 42.6L599 44L593 38L599 32L600.4 33.4L595.825 38L600.4 42.6Z" fill="#A66F00"/>
<path d="M684.4 42.6L683 44L677 38L683 32L684.4 33.4L679.825 38L684.4 42.6ZM678.4 42.6L677 44L671 38L677 32L678.4 33.4L673.825 38L678.4 42.6ZM672.4 42.6L671 44L665 38L671 32L672.4 33.4L667.825 38L672.4 42.6Z" fill="#A66F00"/>
<path d="M540.4 42.6L539 44L533 38L539 32L540.4 33.4L535.825 38L540.4 42.6ZM534.4 42.6L533 44L527 38L533 32L534.4 33.4L529.825 38L534.4 42.6ZM528.4 42.6L527 44L521 38L527 32L528.4 33.4L523.825 38L528.4 42.6Z" fill="#A66F00"/>
<path d="M450.4 42.6L449 44L443 38L449 32L450.4 33.4L445.825 38L450.4 42.6ZM444.4 42.6L443 44L437 38L443 32L444.4 33.4L439.825 38L444.4 42.6ZM438.4 42.6L437 44L431 38L437 32L438.4 33.4L433.825 38L438.4 42.6Z" fill="#A66F00"/>
<path d="M738.4 42.6L737 44L731 38L737 32L738.4 33.4L733.825 38L738.4 42.6ZM732.4 42.6L731 44L725 38L731 32L732.4 33.4L727.825 38L732.4 42.6ZM726.4 42.6L725 44L719 38L725 32L726.4 33.4L721.825 38L726.4 42.6Z" fill="#A66F00"/>
<path d="M594.4 42.6L593 44L587 38L593 32L594.4 33.4L589.825 38L594.4 42.6ZM588.4 42.6L587 44L581 38L587 32L588.4 33.4L583.825 38L588.4 42.6ZM582.4 42.6L581 44L575 38L581 32L582.4 33.4L577.825 38L582.4 42.6Z" fill="#A66F00"/>
<path d="M666.4 42.6L665 44L659 38L665 32L666.4 33.4L661.825 38L666.4 42.6ZM660.4 42.6L659 44L653 38L659 32L660.4 33.4L655.825 38L660.4 42.6ZM654.4 42.6L653 44L647 38L653 32L654.4 33.4L649.825 38L654.4 42.6Z" fill="#A66F00"/>
<path d="M522.4 42.6L521 44L515 38L521 32L522.4 33.4L517.825 38L522.4 42.6ZM516.4 42.6L515 44L509 38L515 32L516.4 33.4L511.825 38L516.4 42.6ZM510.4 42.6L509 44L503 38L509 32L510.4 33.4L505.825 38L510.4 42.6Z" fill="#A66F00"/>
<path d="M432.4 42.6L431 44L425 38L431 32L432.4 33.4L427.825 38L432.4 42.6ZM426.4 42.6L425 44L419 38L425 32L426.4 33.4L421.825 38L426.4 42.6ZM420.4 42.6L419 44L413 38L419 32L420.4 33.4L415.825 38L420.4 42.6Z" fill="#A66F00"/>
<path d="M720.4 42.6L719 44L713 38L719 32L720.4 33.4L715.825 38L720.4 42.6ZM714.4 42.6L713 44L707 38L713 32L714.4 33.4L709.825 38L714.4 42.6ZM708.4 42.6L707 44L701 38L707 32L708.4 33.4L703.825 38L708.4 42.6Z" fill="#A66F00"/>
<path d="M576.4 42.6L575 44L569 38L575 32L576.4 33.4L571.825 38L576.4 42.6ZM570.4 42.6L569 44L563 38L569 32L570.4 33.4L565.825 38L570.4 42.6ZM564.4 42.6L563 44L557 38L563 32L564.4 33.4L559.825 38L564.4 42.6Z" fill="#A66F00"/>
<path d="M486.4 42.6L485 44L479 38L485 32L486.4 33.4L481.825 38L486.4 42.6ZM480.4 42.6L479 44L473 38L479 32L480.4 33.4L475.825 38L480.4 42.6ZM474.4 42.6L473 44L467 38L473 32L474.4 33.4L469.825 38L474.4 42.6Z" fill="#A66F00"/>
<path d="M648.4 42.6L647 44L641 38L647 32L648.4 33.4L643.825 38L648.4 42.6ZM642.4 42.6L641 44L635 38L641 32L642.4 33.4L637.825 38L642.4 42.6ZM636.4 42.6L635 44L629 38L635 32L636.4 33.4L631.825 38L636.4 42.6Z" fill="#A66F00"/>
<path d="M504.4 42.6L503 44L497 38L503 32L504.4 33.4L499.825 38L504.4 42.6ZM498.4 42.6L497 44L491 38L497 32L498.4 33.4L493.825 38L498.4 42.6ZM492.4 42.6L491 44L485 38L491 32L492.4 33.4L487.825 38L492.4 42.6Z" fill="#A66F00"/>
<path d="M414.4 42.6L413 44L407 38L413 32L414.4 33.4L409.825 38L414.4 42.6ZM408.4 42.6L407 44L401 38L407 32L408.4 33.4L403.825 38L408.4 42.6ZM402.4 42.6L401 44L395 38L401 32L402.4 33.4L397.825 38L402.4 42.6Z" fill="#A66F00"/>
<path d="M396.4 42.6L395 44L389 38L395 32L396.4 33.4L391.825 38L396.4 42.6ZM390.4 42.6L389 44L383 38L389 32L390.4 33.4L385.825 38L390.4 42.6ZM384.4 42.6L383 44L377 38L383 32L384.4 33.4L379.825 38L384.4 42.6Z" fill="#A66F00"/>
<path d="M378.4 42.6L377 44L371 38L377 32L378.4 33.4L373.825 38L378.4 42.6ZM372.4 42.6L371 44L365 38L371 32L372.4 33.4L367.825 38L372.4 42.6ZM366.4 42.6L365 44L359 38L365 32L366.4 33.4L361.825 38L366.4 42.6Z" fill="#A66F00"/>
<path d="M360.4 42.6L359 44L353 38L359 32L360.4 33.4L355.825 38L360.4 42.6ZM354.4 42.6L353 44L347 38L353 32L354.4 33.4L349.825 38L354.4 42.6ZM348.4 42.6L347 44L341 38L347 32L348.4 33.4L343.825 38L348.4 42.6Z" fill="#A66F00"/>
<path d="M342.4 42.6L341 44L335 38L341 32L342.4 33.4L337.825 38L342.4 42.6ZM336.4 42.6L335 44L329 38L335 32L336.4 33.4L331.825 38L336.4 42.6ZM330.4 42.6L329 44L323 38L329 32L330.4 33.4L325.825 38L330.4 42.6Z" fill="#A66F00"/>
<path d="M252.4 42.6L251 44L245 38L251 32L252.4 33.4L247.825 38L252.4 42.6ZM246.4 42.6L245 44L239 38L245 32L246.4 33.4L241.825 38L246.4 42.6ZM240.4 42.6L239 44L233 38L239 32L240.4 33.4L235.825 38L240.4 42.6Z" fill="#A66F00"/>
<path d="M324.4 42.6L323 44L317 38L323 32L324.4 33.4L319.825 38L324.4 42.6ZM318.4 42.6L317 44L311 38L317 32L318.4 33.4L313.825 38L318.4 42.6ZM312.4 42.6L311 44L305 38L311 32L312.4 33.4L307.825 38L312.4 42.6Z" fill="#A66F00"/>
<path d="M306.4 42.6L305 44L299 38L305 32L306.4 33.4L301.825 38L306.4 42.6ZM300.4 42.6L299 44L293 38L299 32L300.4 33.4L295.825 38L300.4 42.6ZM294.4 42.6L293 44L287 38L293 32L294.4 33.4L289.825 38L294.4 42.6Z" fill="#A66F00"/>
<path d="M270.4 42.6L269 44L263 38L269 32L270.4 33.4L265.825 38L270.4 42.6ZM264.4 42.6L263 44L257 38L263 32L264.4 33.4L259.825 38L264.4 42.6ZM258.4 42.6L257 44L251 38L257 32L258.4 33.4L253.825 38L258.4 42.6Z" fill="#A66F00"/>
<path d="M288.4 42.6L287 44L281 38L287 32L288.4 33.4L283.825 38L288.4 42.6ZM282.4 42.6L281 44L275 38L281 32L282.4 33.4L277.825 38L282.4 42.6ZM276.4 42.6L275 44L269 38L275 32L276.4 33.4L271.825 38L276.4 42.6Z" fill="#A66F00"/>
<path d="M775.4 26.6L774 28L768 22L774 16L775.4 17.4L770.825 22L775.4 26.6ZM769.4 26.6L768 28L762 22L768 16L769.4 17.4L764.825 22L769.4 26.6ZM763.4 26.6L762 28L756 22L762 16L763.4 17.4L758.825 22L763.4 26.6Z" fill="#A66F00"/>
<path d="M631.4 26.6L630 28L624 22L630 16L631.4 17.4L626.825 22L631.4 26.6ZM625.4 26.6L624 28L618 22L624 16L625.4 17.4L620.825 22L625.4 26.6ZM619.4 26.6L618 28L612 22L618 16L619.4 17.4L614.825 22L619.4 26.6Z" fill="#A66F00"/>
<path d="M703.4 26.6L702 28L696 22L702 16L703.4 17.4L698.825 22L703.4 26.6ZM697.4 26.6L696 28L690 22L696 16L697.4 17.4L692.825 22L697.4 26.6ZM691.4 26.6L690 28L684 22L690 16L691.4 17.4L686.825 22L691.4 26.6Z" fill="#A66F00"/>
<path d="M559.4 26.6L558 28L552 22L558 16L559.4 17.4L554.825 22L559.4 26.6ZM553.4 26.6L552 28L546 22L552 16L553.4 17.4L548.825 22L553.4 26.6ZM547.4 26.6L546 28L540 22L546 16L547.4 17.4L542.825 22L547.4 26.6Z" fill="#A66F00"/>
<path d="M469.4 26.6L468 28L462 22L468 16L469.4 17.4L464.825 22L469.4 26.6ZM463.4 26.6L462 28L456 22L462 16L463.4 17.4L458.825 22L463.4 26.6ZM457.4 26.6L456 28L450 22L456 16L457.4 17.4L452.825 22L457.4 26.6Z" fill="#A66F00"/>
<path d="M757.4 26.6L756 28L750 22L756 16L757.4 17.4L752.825 22L757.4 26.6ZM751.4 26.6L750 28L744 22L750 16L751.4 17.4L746.825 22L751.4 26.6ZM745.4 26.6L744 28L738 22L744 16L745.4 17.4L740.825 22L745.4 26.6Z" fill="#A66F00"/>
<path d="M613.4 26.6L612 28L606 22L612 16L613.4 17.4L608.825 22L613.4 26.6ZM607.4 26.6L606 28L600 22L606 16L607.4 17.4L602.825 22L607.4 26.6ZM601.4 26.6L600 28L594 22L600 16L601.4 17.4L596.825 22L601.4 26.6Z" fill="#A66F00"/>
<path d="M685.4 26.6L684 28L678 22L684 16L685.4 17.4L680.825 22L685.4 26.6ZM679.4 26.6L678 28L672 22L678 16L679.4 17.4L674.825 22L679.4 26.6ZM673.4 26.6L672 28L666 22L672 16L673.4 17.4L668.825 22L673.4 26.6Z" fill="#A66F00"/>
<path d="M541.4 26.6L540 28L534 22L540 16L541.4 17.4L536.825 22L541.4 26.6ZM535.4 26.6L534 28L528 22L534 16L535.4 17.4L530.825 22L535.4 26.6ZM529.4 26.6L528 28L522 22L528 16L529.4 17.4L524.825 22L529.4 26.6Z" fill="#A66F00"/>
<path d="M451.4 26.6L450 28L444 22L450 16L451.4 17.4L446.825 22L451.4 26.6ZM445.4 26.6L444 28L438 22L444 16L445.4 17.4L440.825 22L445.4 26.6ZM439.4 26.6L438 28L432 22L438 16L439.4 17.4L434.825 22L439.4 26.6Z" fill="#A66F00"/>
<path d="M739.4 26.6L738 28L732 22L738 16L739.4 17.4L734.825 22L739.4 26.6ZM733.4 26.6L732 28L726 22L732 16L733.4 17.4L728.825 22L733.4 26.6ZM727.4 26.6L726 28L720 22L726 16L727.4 17.4L722.825 22L727.4 26.6Z" fill="#A66F00"/>
<path d="M595.4 26.6L594 28L588 22L594 16L595.4 17.4L590.825 22L595.4 26.6ZM589.4 26.6L588 28L582 22L588 16L589.4 17.4L584.825 22L589.4 26.6ZM583.4 26.6L582 28L576 22L582 16L583.4 17.4L578.825 22L583.4 26.6Z" fill="#A66F00"/>
<path d="M667.4 26.6L666 28L660 22L666 16L667.4 17.4L662.825 22L667.4 26.6ZM661.4 26.6L660 28L654 22L660 16L661.4 17.4L656.825 22L661.4 26.6ZM655.4 26.6L654 28L648 22L654 16L655.4 17.4L650.825 22L655.4 26.6Z" fill="#A66F00"/>
<path d="M523.4 26.6L522 28L516 22L522 16L523.4 17.4L518.825 22L523.4 26.6ZM517.4 26.6L516 28L510 22L516 16L517.4 17.4L512.825 22L517.4 26.6ZM511.4 26.6L510 28L504 22L510 16L511.4 17.4L506.825 22L511.4 26.6Z" fill="#A66F00"/>
<path d="M433.4 26.6L432 28L426 22L432 16L433.4 17.4L428.825 22L433.4 26.6ZM427.4 26.6L426 28L420 22L426 16L427.4 17.4L422.825 22L427.4 26.6ZM421.4 26.6L420 28L414 22L420 16L421.4 17.4L416.825 22L421.4 26.6Z" fill="#A66F00"/>
<path d="M721.4 26.6L720 28L714 22L720 16L721.4 17.4L716.825 22L721.4 26.6ZM715.4 26.6L714 28L708 22L714 16L715.4 17.4L710.825 22L715.4 26.6ZM709.4 26.6L708 28L702 22L708 16L709.4 17.4L704.825 22L709.4 26.6Z" fill="#A66F00"/>
<path d="M577.4 26.6L576 28L570 22L576 16L577.4 17.4L572.825 22L577.4 26.6ZM571.4 26.6L570 28L564 22L570 16L571.4 17.4L566.825 22L571.4 26.6ZM565.4 26.6L564 28L558 22L564 16L565.4 17.4L560.825 22L565.4 26.6Z" fill="#A66F00"/>
<path d="M487.4 26.6L486 28L480 22L486 16L487.4 17.4L482.825 22L487.4 26.6ZM481.4 26.6L480 28L474 22L480 16L481.4 17.4L476.825 22L481.4 26.6ZM475.4 26.6L474 28L468 22L474 16L475.4 17.4L470.825 22L475.4 26.6Z" fill="#A66F00"/>
<path d="M649.4 26.6L648 28L642 22L648 16L649.4 17.4L644.825 22L649.4 26.6ZM643.4 26.6L642 28L636 22L642 16L643.4 17.4L638.825 22L643.4 26.6ZM637.4 26.6L636 28L630 22L636 16L637.4 17.4L632.825 22L637.4 26.6Z" fill="#A66F00"/>
<path d="M505.4 26.6L504 28L498 22L504 16L505.4 17.4L500.825 22L505.4 26.6ZM499.4 26.6L498 28L492 22L498 16L499.4 17.4L494.825 22L499.4 26.6ZM493.4 26.6L492 28L486 22L492 16L493.4 17.4L488.825 22L493.4 26.6Z" fill="#A66F00"/>
<path d="M415.4 26.6L414 28L408 22L414 16L415.4 17.4L410.825 22L415.4 26.6ZM409.4 26.6L408 28L402 22L408 16L409.4 17.4L404.825 22L409.4 26.6ZM403.4 26.6L402 28L396 22L402 16L403.4 17.4L398.825 22L403.4 26.6Z" fill="#A66F00"/>
<path d="M397.4 26.6L396 28L390 22L396 16L397.4 17.4L392.825 22L397.4 26.6ZM391.4 26.6L390 28L384 22L390 16L391.4 17.4L386.825 22L391.4 26.6ZM385.4 26.6L384 28L378 22L384 16L385.4 17.4L380.825 22L385.4 26.6Z" fill="#A66F00"/>
<path d="M379.4 26.6L378 28L372 22L378 16L379.4 17.4L374.825 22L379.4 26.6ZM373.4 26.6L372 28L366 22L372 16L373.4 17.4L368.825 22L373.4 26.6ZM367.4 26.6L366 28L360 22L366 16L367.4 17.4L362.825 22L367.4 26.6Z" fill="#A66F00"/>
<path d="M361.4 26.6L360 28L354 22L360 16L361.4 17.4L356.825 22L361.4 26.6ZM355.4 26.6L354 28L348 22L354 16L355.4 17.4L350.825 22L355.4 26.6ZM349.4 26.6L348 28L342 22L348 16L349.4 17.4L344.825 22L349.4 26.6Z" fill="#A66F00"/>
<path d="M775.4 10.6L774 12L768 6L774 1.78814e-07L775.4 1.4L770.825 6L775.4 10.6ZM769.4 10.6L768 12L762 6L768 1.78814e-07L769.4 1.4L764.825 6L769.4 10.6ZM763.4 10.6L762 12L756 6L762 1.78814e-07L763.4 1.4L758.825 6L763.4 10.6Z" fill="#A66F00"/>
<path d="M631.4 10.6L630 12L624 6L630 1.78814e-07L631.4 1.4L626.825 6L631.4 10.6ZM625.4 10.6L624 12L618 6L624 1.78814e-07L625.4 1.4L620.825 6L625.4 10.6ZM619.4 10.6L618 12L612 6L618 1.78814e-07L619.4 1.4L614.825 6L619.4 10.6Z" fill="#A66F00"/>
<path d="M703.4 10.6L702 12L696 6L702 1.78814e-07L703.4 1.4L698.825 6L703.4 10.6ZM697.4 10.6L696 12L690 6L696 1.78814e-07L697.4 1.4L692.825 6L697.4 10.6ZM691.4 10.6L690 12L684 6L690 1.78814e-07L691.4 1.4L686.825 6L691.4 10.6Z" fill="#A66F00"/>
<path d="M559.4 10.6L558 12L552 6L558 1.78814e-07L559.4 1.4L554.825 6L559.4 10.6ZM553.4 10.6L552 12L546 6L552 1.78814e-07L553.4 1.4L548.825 6L553.4 10.6ZM547.4 10.6L546 12L540 6L546 1.78814e-07L547.4 1.4L542.825 6L547.4 10.6Z" fill="#A66F00"/>
<path d="M469.4 10.6L468 12L462 6L468 1.78814e-07L469.4 1.4L464.825 6L469.4 10.6ZM463.4 10.6L462 12L456 6L462 1.78814e-07L463.4 1.4L458.825 6L463.4 10.6ZM457.4 10.6L456 12L450 6L456 1.78814e-07L457.4 1.4L452.825 6L457.4 10.6Z" fill="#A66F00"/>
<path d="M757.4 10.6L756 12L750 6L756 1.78814e-07L757.4 1.4L752.825 6L757.4 10.6ZM751.4 10.6L750 12L744 6L750 1.78814e-07L751.4 1.4L746.825 6L751.4 10.6ZM745.4 10.6L744 12L738 6L744 1.78814e-07L745.4 1.4L740.825 6L745.4 10.6Z" fill="#A66F00"/>
<path d="M613.4 10.6L612 12L606 6L612 1.78814e-07L613.4 1.4L608.825 6L613.4 10.6ZM607.4 10.6L606 12L600 6L606 1.78814e-07L607.4 1.4L602.825 6L607.4 10.6ZM601.4 10.6L600 12L594 6L600 1.78814e-07L601.4 1.4L596.825 6L601.4 10.6Z" fill="#A66F00"/>
<path d="M685.4 10.6L684 12L678 6L684 1.78814e-07L685.4 1.4L680.825 6L685.4 10.6ZM679.4 10.6L678 12L672 6L678 1.78814e-07L679.4 1.4L674.825 6L679.4 10.6ZM673.4 10.6L672 12L666 6L672 1.78814e-07L673.4 1.4L668.825 6L673.4 10.6Z" fill="#A66F00"/>
<path d="M541.4 10.6L540 12L534 6L540 1.78814e-07L541.4 1.4L536.825 6L541.4 10.6ZM535.4 10.6L534 12L528 6L534 1.78814e-07L535.4 1.4L530.825 6L535.4 10.6ZM529.4 10.6L528 12L522 6L528 1.78814e-07L529.4 1.4L524.825 6L529.4 10.6Z" fill="#A66F00"/>
<path d="M451.4 10.6L450 12L444 6L450 1.78814e-07L451.4 1.4L446.825 6L451.4 10.6ZM445.4 10.6L444 12L438 6L444 1.78814e-07L445.4 1.4L440.825 6L445.4 10.6ZM439.4 10.6L438 12L432 6L438 1.78814e-07L439.4 1.4L434.825 6L439.4 10.6Z" fill="#A66F00"/>
<path d="M739.4 10.6L738 12L732 6L738 1.78814e-07L739.4 1.4L734.825 6L739.4 10.6ZM733.4 10.6L732 12L726 6L732 1.78814e-07L733.4 1.4L728.825 6L733.4 10.6ZM727.4 10.6L726 12L720 6L726 1.78814e-07L727.4 1.4L722.825 6L727.4 10.6Z" fill="#A66F00"/>
<path d="M595.4 10.6L594 12L588 6L594 1.78814e-07L595.4 1.4L590.825 6L595.4 10.6ZM589.4 10.6L588 12L582 6L588 1.78814e-07L589.4 1.4L584.825 6L589.4 10.6ZM583.4 10.6L582 12L576 6L582 1.78814e-07L583.4 1.4L578.825 6L583.4 10.6Z" fill="#A66F00"/>
<path d="M667.4 10.6L666 12L660 6L666 1.78814e-07L667.4 1.4L662.825 6L667.4 10.6ZM661.4 10.6L660 12L654 6L660 1.78814e-07L661.4 1.4L656.825 6L661.4 10.6ZM655.4 10.6L654 12L648 6L654 1.78814e-07L655.4 1.4L650.825 6L655.4 10.6Z" fill="#A66F00"/>
<path d="M523.4 10.6L522 12L516 6L522 1.78814e-07L523.4 1.4L518.825 6L523.4 10.6ZM517.4 10.6L516 12L510 6L516 1.78814e-07L517.4 1.4L512.825 6L517.4 10.6ZM511.4 10.6L510 12L504 6L510 1.78814e-07L511.4 1.4L506.825 6L511.4 10.6Z" fill="#A66F00"/>
<path d="M433.4 10.6L432 12L426 6L432 1.78814e-07L433.4 1.4L428.825 6L433.4 10.6ZM427.4 10.6L426 12L420 6L426 1.78814e-07L427.4 1.4L422.825 6L427.4 10.6ZM421.4 10.6L420 12L414 6L420 1.78814e-07L421.4 1.4L416.825 6L421.4 10.6Z" fill="#A66F00"/>
<path d="M721.4 10.6L720 12L714 6L720 1.78814e-07L721.4 1.4L716.825 6L721.4 10.6ZM715.4 10.6L714 12L708 6L714 1.78814e-07L715.4 1.4L710.825 6L715.4 10.6ZM709.4 10.6L708 12L702 6L708 1.78814e-07L709.4 1.4L704.825 6L709.4 10.6Z" fill="#A66F00"/>
<path d="M577.4 10.6L576 12L570 6L576 1.78814e-07L577.4 1.4L572.825 6L577.4 10.6ZM571.4 10.6L570 12L564 6L570 1.78814e-07L571.4 1.4L566.825 6L571.4 10.6ZM565.4 10.6L564 12L558 6L564 1.78814e-07L565.4 1.4L560.825 6L565.4 10.6Z" fill="#A66F00"/>
<path d="M487.4 10.6L486 12L480 6L486 1.78814e-07L487.4 1.4L482.825 6L487.4 10.6ZM481.4 10.6L480 12L474 6L480 1.78814e-07L481.4 1.4L476.825 6L481.4 10.6ZM475.4 10.6L474 12L468 6L474 1.78814e-07L475.4 1.4L470.825 6L475.4 10.6Z" fill="#A66F00"/>
<path d="M649.4 10.6L648 12L642 6L648 1.78814e-07L649.4 1.4L644.825 6L649.4 10.6ZM643.4 10.6L642 12L636 6L642 1.78814e-07L643.4 1.4L638.825 6L643.4 10.6ZM637.4 10.6L636 12L630 6L636 1.78814e-07L637.4 1.4L632.825 6L637.4 10.6Z" fill="#A66F00"/>
<path d="M505.4 10.6L504 12L498 6L504 1.78814e-07L505.4 1.4L500.825 6L505.4 10.6ZM499.4 10.6L498 12L492 6L498 1.78814e-07L499.4 1.4L494.825 6L499.4 10.6ZM493.4 10.6L492 12L486 6L492 1.78814e-07L493.4 1.4L488.825 6L493.4 10.6Z" fill="#A66F00"/>
<path d="M415.4 10.6L414 12L408 6L414 1.78814e-07L415.4 1.4L410.825 6L415.4 10.6ZM409.4 10.6L408 12L402 6L408 1.78814e-07L409.4 1.4L404.825 6L409.4 10.6ZM403.4 10.6L402 12L396 6L402 1.78814e-07L403.4 1.4L398.825 6L403.4 10.6Z" fill="#A66F00"/>
<path d="M397.4 10.6L396 12L390 6L396 1.78814e-07L397.4 1.4L392.825 6L397.4 10.6ZM391.4 10.6L390 12L384 6L390 1.78814e-07L391.4 1.4L386.825 6L391.4 10.6ZM385.4 10.6L384 12L378 6L384 1.78814e-07L385.4 1.4L380.825 6L385.4 10.6Z" fill="#A66F00"/>
<path d="M379.4 10.6L378 12L372 6L378 1.78814e-07L379.4 1.4L374.825 6L379.4 10.6ZM373.4 10.6L372 12L366 6L372 1.78814e-07L373.4 1.4L368.825 6L373.4 10.6ZM367.4 10.6L366 12L360 6L366 1.78814e-07L367.4 1.4L362.825 6L367.4 10.6Z" fill="#A66F00"/>
<path d="M361.4 10.6L360 12L354 6L360 1.78814e-07L361.4 1.4L356.825 6L361.4 10.6ZM355.4 10.6L354 12L348 6L354 1.78814e-07L355.4 1.4L350.825 6L355.4 10.6ZM349.4 10.6L348 12L342 6L348 1.78814e-07L349.4 1.4L344.825 6L349.4 10.6Z" fill="#A66F00"/>
<path d="M343.4 26.6L342 28L336 22L342 16L343.4 17.4L338.825 22L343.4 26.6ZM337.4 26.6L336 28L330 22L336 16L337.4 17.4L332.825 22L337.4 26.6ZM331.4 26.6L330 28L324 22L330 16L331.4 17.4L326.825 22L331.4 26.6Z" fill="#A66F00"/>
<path d="M253.4 26.6L252 28L246 22L252 16L253.4 17.4L248.825 22L253.4 26.6ZM247.4 26.6L246 28L240 22L246 16L247.4 17.4L242.825 22L247.4 26.6ZM241.4 26.6L240 28L234 22L240 16L241.4 17.4L236.825 22L241.4 26.6Z" fill="#A66F00"/>
<path d="M325.4 26.6L324 28L318 22L324 16L325.4 17.4L320.825 22L325.4 26.6ZM319.4 26.6L318 28L312 22L318 16L319.4 17.4L314.825 22L319.4 26.6ZM313.4 26.6L312 28L306 22L312 16L313.4 17.4L308.825 22L313.4 26.6Z" fill="#A66F00"/>
<path d="M235.4 26.6L234 28L228 22L234 16L235.4 17.4L230.825 22L235.4 26.6ZM229.4 26.6L228 28L222 22L228 16L229.4 17.4L224.825 22L229.4 26.6ZM223.4 26.6L222 28L216 22L222 16L223.4 17.4L218.825 22L223.4 26.6Z" fill="#A66F00"/>
<path d="M307.4 26.6L306 28L300 22L306 16L307.4 17.4L302.825 22L307.4 26.6ZM301.4 26.6L300 28L294 22L300 16L301.4 17.4L296.825 22L301.4 26.6ZM295.4 26.6L294 28L288 22L294 16L295.4 17.4L290.825 22L295.4 26.6Z" fill="#A66F00"/>
<path d="M217.4 26.6L216 28L210 22L216 16L217.4 17.4L212.825 22L217.4 26.6ZM211.4 26.6L210 28L204 22L210 16L211.4 17.4L206.825 22L211.4 26.6ZM205.4 26.6L204 28L198 22L204 16L205.4 17.4L200.825 22L205.4 26.6Z" fill="#A66F00"/>
<path d="M271.4 26.6L270 28L264 22L270 16L271.4 17.4L266.825 22L271.4 26.6ZM265.4 26.6L264 28L258 22L264 16L265.4 17.4L260.825 22L265.4 26.6ZM259.4 26.6L258 28L252 22L258 16L259.4 17.4L254.825 22L259.4 26.6Z" fill="#A66F00"/>
<path d="M289.4 26.6L288 28L282 22L288 16L289.4 17.4L284.825 22L289.4 26.6ZM283.4 26.6L282 28L276 22L282 16L283.4 17.4L278.825 22L283.4 26.6ZM277.4 26.6L276 28L270 22L276 16L277.4 17.4L272.825 22L277.4 26.6Z" fill="#A66F00"/>
<path d="M199.4 26.6L198 28L192 22L198 16L199.4 17.4L194.825 22L199.4 26.6ZM193.4 26.6L192 28L186 22L192 16L193.4 17.4L188.825 22L193.4 26.6ZM187.4 26.6L186 28L180 22L186 16L187.4 17.4L182.825 22L187.4 26.6Z" fill="#A66F00"/>
<path d="M181.4 26.6L180 28L174 22L180 16L181.4 17.4L176.825 22L181.4 26.6ZM175.4 26.6L174 28L168 22L174 16L175.4 17.4L170.825 22L175.4 26.6ZM169.4 26.6L168 28L162 22L168 16L169.4 17.4L164.825 22L169.4 26.6Z" fill="#A66F00"/>
<path d="M163.4 26.6L162 28L156 22L162 16L163.4 17.4L158.825 22L163.4 26.6ZM157.4 26.6L156 28L150 22L156 16L157.4 17.4L152.825 22L157.4 26.6ZM151.4 26.6L150 28L144 22L150 16L151.4 17.4L146.825 22L151.4 26.6Z" fill="#A66F00"/>
<path d="M145.4 26.6L144 28L138 22L144 16L145.4 17.4L140.825 22L145.4 26.6ZM139.4 26.6L138 28L132 22L138 16L139.4 17.4L134.825 22L139.4 26.6ZM133.4 26.6L132 28L126 22L132 16L133.4 17.4L128.825 22L133.4 26.6Z" fill="#A66F00"/>
<path d="M343.4 10.6L342 12L336 6L342 0L343.4 1.4L338.825 6L343.4 10.6ZM337.4 10.6L336 12L330 6L336 0L337.4 1.4L332.825 6L337.4 10.6ZM331.4 10.6L330 12L324 6L330 0L331.4 1.4L326.825 6L331.4 10.6Z" fill="#A66F00"/>
<path d="M127.4 10.6L126 12L120 6L126 0L127.4 1.4L122.825 6L127.4 10.6ZM121.4 10.6L120 12L114 6L120 0L121.4 1.4L116.825 6L121.4 10.6ZM115.4 10.6L114 12L108 6L114 0L115.4 1.4L110.825 6L115.4 10.6Z" fill="#A66F00"/>
<path d="M253.4 10.6L252 12L246 6L252 0L253.4 1.4L248.825 6L253.4 10.6ZM247.4 10.6L246 12L240 6L246 0L247.4 1.4L242.825 6L247.4 10.6ZM241.4 10.6L240 12L234 6L240 0L241.4 1.4L236.825 6L241.4 10.6Z" fill="#A66F00"/>
<path d="M37.4 10.6L36 12L30 6L36 0L37.4 1.4L32.825 6L37.4 10.6ZM31.4 10.6L30 12L24 6L30 0L31.4 1.4L26.825 6L31.4 10.6ZM25.4 10.6L24 12L18 6L24 0L25.4 1.4L20.825 6L25.4 10.6Z" fill="#A66F00"/>
<path d="M325.4 10.6L324 12L318 6L324 0L325.4 1.4L320.825 6L325.4 10.6ZM319.4 10.6L318 12L312 6L318 0L319.4 1.4L314.825 6L319.4 10.6ZM313.4 10.6L312 12L306 6L312 0L313.4 1.4L308.825 6L313.4 10.6Z" fill="#A66F00"/>
<path d="M109.4 10.6L108 12L102 6L108 0L109.4 1.4L104.825 6L109.4 10.6ZM103.4 10.6L102 12L96 6L102 0L103.4 1.4L98.825 6L103.4 10.6ZM97.4 10.6L96 12L90 6L96 0L97.4 1.4L92.825 6L97.4 10.6Z" fill="#A66F00"/>
<path d="M235.4 10.6L234 12L228 6L234 0L235.4 1.4L230.825 6L235.4 10.6ZM229.4 10.6L228 12L222 6L228 0L229.4 1.4L224.825 6L229.4 10.6ZM223.4 10.6L222 12L216 6L222 0L223.4 1.4L218.825 6L223.4 10.6Z" fill="#A66F00"/>
<path d="M19.4 10.6L18 12L12 6L18 0L19.4 1.4L14.825 6L19.4 10.6ZM13.4 10.6L12 12L6 6L12 0L13.4 1.4L8.825 6L13.4 10.6ZM7.4 10.6L6 12L0 6L6 0L7.4 1.4L2.825 6L7.4 10.6Z" fill="#A66F00"/>
<path d="M307.4 10.6L306 12L300 6L306 0L307.4 1.4L302.825 6L307.4 10.6ZM301.4 10.6L300 12L294 6L300 0L301.4 1.4L296.825 6L301.4 10.6ZM295.4 10.6L294 12L288 6L294 0L295.4 1.4L290.825 6L295.4 10.6Z" fill="#A66F00"/>
<path d="M91.4 10.6L90 12L84 6L90 0L91.4 1.4L86.825 6L91.4 10.6ZM85.4 10.6L84 12L78 6L84 0L85.4 1.4L80.825 6L85.4 10.6ZM79.4 10.6L78 12L72 6L78 0L79.4 1.4L74.825 6L79.4 10.6Z" fill="#A66F00"/>
<path d="M217.4 10.6L216 12L210 6L216 0L217.4 1.4L212.825 6L217.4 10.6ZM211.4 10.6L210 12L204 6L210 0L211.4 1.4L206.825 6L211.4 10.6ZM205.4 10.6L204 12L198 6L204 0L205.4 1.4L200.825 6L205.4 10.6Z" fill="#A66F00"/>
<path d="M271.4 10.6L270 12L264 6L270 0L271.4 1.4L266.825 6L271.4 10.6ZM265.4 10.6L264 12L258 6L264 0L265.4 1.4L260.825 6L265.4 10.6ZM259.4 10.6L258 12L252 6L258 0L259.4 1.4L254.825 6L259.4 10.6Z" fill="#A66F00"/>
<path d="M55.4 10.6L54 12L48 6L54 0L55.4 1.4L50.825 6L55.4 10.6ZM49.4 10.6L48 12L42 6L48 0L49.4 1.4L44.825 6L49.4 10.6ZM43.4 10.6L42 12L36 6L42 0L43.4 1.4L38.825 6L43.4 10.6Z" fill="#A66F00"/>
<path d="M289.4 10.6L288 12L282 6L288 0L289.4 1.4L284.825 6L289.4 10.6ZM283.4 10.6L282 12L276 6L282 0L283.4 1.4L278.825 6L283.4 10.6ZM277.4 10.6L276 12L270 6L276 0L277.4 1.4L272.825 6L277.4 10.6Z" fill="#A66F00"/>
<path d="M73.4 10.6L72 12L66 6L72 0L73.4 1.4L68.825 6L73.4 10.6ZM67.4 10.6L66 12L60 6L66 0L67.4 1.4L62.825 6L67.4 10.6ZM61.4 10.6L60 12L54 6L60 0L61.4 1.4L56.825 6L61.4 10.6Z" fill="#A66F00"/>
<path d="M199.4 10.6L198 12L192 6L198 0L199.4 1.4L194.825 6L199.4 10.6ZM193.4 10.6L192 12L186 6L192 0L193.4 1.4L188.825 6L193.4 10.6ZM187.4 10.6L186 12L180 6L186 0L187.4 1.4L182.825 6L187.4 10.6Z" fill="#A66F00"/>
<path d="M181.4 10.6L180 12L174 6L180 0L181.4 1.4L176.825 6L181.4 10.6ZM175.4 10.6L174 12L168 6L174 0L175.4 1.4L170.825 6L175.4 10.6ZM169.4 10.6L168 12L162 6L168 0L169.4 1.4L164.825 6L169.4 10.6Z" fill="#A66F00"/>
<path d="M163.4 10.6L162 12L156 6L162 0L163.4 1.4L158.825 6L163.4 10.6ZM157.4 10.6L156 12L150 6L156 0L157.4 1.4L152.825 6L157.4 10.6ZM151.4 10.6L150 12L144 6L150 0L151.4 1.4L146.825 6L151.4 10.6Z" fill="#A66F00"/>
<path d="M145.4 10.6L144 12L138 6L144 0L145.4 1.4L140.825 6L145.4 10.6ZM139.4 10.6L138 12L132 6L138 0L139.4 1.4L134.825 6L139.4 10.6ZM133.4 10.6L132 12L126 6L132 0L133.4 1.4L128.825 6L133.4 10.6Z" fill="#A66F00"/>
</g>
</svg>
