<svg width="6" height="25" viewBox="0 0 6 25" fill="none" xmlns="http://www.w3.org/2000/svg">
<path d="M3 25C2.175 25 1.46875 24.694 0.88125 24.082C0.29375 23.4701 0 22.7344 0 21.875C0 21.0156 0.29375 20.2799 0.88125 19.668C1.46875 19.056 2.175 18.75 3 18.75C3.825 18.75 4.53125 19.056 5.11875 19.668C5.70625 20.2799 6 21.0156 6 21.875C6 22.7344 5.70625 23.4701 5.11875 24.082C4.53125 24.694 3.825 25 3 25ZM3 15.625C2.175 15.625 1.46875 15.319 0.88125 14.707C0.29375 14.0951 0 13.3594 0 12.5C0 11.6406 0.29375 10.9049 0.88125 10.293C1.46875 9.68099 2.175 9.375 3 9.375C3.825 9.375 4.53125 9.68099 5.11875 10.293C5.70625 10.9049 6 11.6406 6 12.5C6 13.3594 5.70625 14.0951 5.11875 14.707C4.53125 15.319 3.825 15.625 3 15.625ZM3 6.25C2.175 6.25 1.46875 5.94401 0.88125 5.33203C0.29375 4.72005 0 3.98438 0 3.125C0 2.26562 0.29375 1.52995 0.88125 0.917969C1.46875 0.30599 2.175 0 3 0C3.825 0 4.53125 0.30599 5.11875 0.917969C5.70625 1.52995 6 2.26562 6 3.125C6 3.98438 5.70625 4.72005 5.11875 5.33203C4.53125 5.94401 3.825 6.25 3 6.25Z" fill="#FFBB00"/>
</svg>
