<svg width="44" height="44" viewBox="0 0 44 44" fill="none" xmlns="http://www.w3.org/2000/svg">
<path fill-rule="evenodd" clip-rule="evenodd" d="M15.5 0H12.5V13.5H13.126C13.846 12.828 14.642 12.236 15.5 11.74V0ZM30.874 13.5C28.4689 11.247 25.2955 9.99541 22 10C20.8171 9.99919 19.6397 10.1593 18.5 10.476V0H38C39.5913 0 41.1174 0.632141 42.2426 1.75736C43.3679 2.88258 44 4.4087 44 6V13.5H30.874ZM28.224 16.5C29.0776 17.3175 29.7618 18.2951 30.2376 19.377C30.7134 20.4589 30.9714 21.6239 30.9969 22.8055C31.0225 23.9872 30.815 25.1623 30.3864 26.2637C29.9578 27.3652 29.3165 28.3714 28.499 29.225C27.6815 30.0786 26.7039 30.7628 25.622 31.2386C24.5401 31.7144 23.3751 31.9724 22.1935 31.9979C21.0118 32.0235 19.8367 31.816 18.7353 31.3874C17.6338 30.9588 16.6276 30.3175 15.774 29.5C14.0501 27.8488 13.0527 25.5803 13.0014 23.1937C12.95 20.8072 13.8488 18.4979 15.5 16.774C17.1512 15.0501 19.4197 14.0527 21.8063 14.0014C24.1928 13.95 26.5001 14.8488 28.224 16.5ZM10.74 16.5C9.59966 18.4763 8.99956 20.7179 9 22.9996C9.00044 25.2813 9.6014 27.5227 10.7425 29.4986C11.8836 31.4744 13.5246 33.1151 15.5007 34.2559C17.4768 35.3966 19.7183 35.9971 22 35.9971C24.2817 35.9971 26.5232 35.3966 28.4993 34.2559C30.4754 33.1151 32.1164 31.4744 33.2575 29.4986C34.3986 27.5227 34.9996 25.2813 35 22.9996C35.0004 20.7179 34.4003 18.4763 33.26 16.5H44V38C44 39.5913 43.3679 41.1174 42.2426 42.2426C41.1174 43.3679 39.5913 44 38 44H6C4.4087 44 2.88258 43.3679 1.75736 42.2426C0.632141 41.1174 2.25276e-07 39.5913 2.25276e-07 38V16.5H10.74ZM9.5 0V13.5H6.5V0H9.5ZM3.5 0.544V13.5H2.25276e-07V6C-0.000314598 4.8509 0.329351 3.72588 0.949804 2.75868C1.57026 1.79148 2.4554 1.02279 3.5 0.544ZM32 5C32 4.73478 32.1054 4.48043 32.2929 4.29289C32.4804 4.10536 32.7348 4 33 4H37C37.2652 4 37.5196 4.10536 37.7071 4.29289C37.8946 4.48043 38 4.73478 38 5V9C38 9.26522 37.8946 9.51957 37.7071 9.70711C37.5196 9.89464 37.2652 10 37 10H33C32.7348 10 32.4804 9.89464 32.2929 9.70711C32.1054 9.51957 32 9.26522 32 9V5Z" fill="#332200"/>
</svg>
