<svg width="270" height="100" viewBox="0 0 270 100" fill="none" xmlns="http://www.w3.org/2000/svg">
<path d="M57.527 10.2162V42.9079H60.8097V44.7241H42.0511V42.9079H46.7407V10.4886L37.5021 44.7241H26.4814L16.3048 10.307V42.9079H20.9945V44.7241H10.4427V42.9079H14.1945V10.2162H10.4427V8.39996H26.7628L36.3766 40.9101L45.1463 8.39996H60.8097V10.2162H57.527Z" fill="black"/>
<path d="M94.7999 21.7037V51.8527L90.4385 56.0754H70.0854L66.1929 52.3068V46.9944H76.9792V54.2592H84.0137V39.8204L81.7626 41.9998H71.2578L66.8964 37.7771V19.2972H63.1447V17.481H73.0867L77.4481 21.7037V40.1836H80.7309L84.0137 37.0052V19.2972H80.7309V17.481H90.4385L94.7999 21.7037Z" fill="black"/>
<path d="M148.21 10.2162H145.068L134.61 44.7241H123.401L112.943 10.2162H109.801V8.39996H129.217V10.2162H124.152L133.484 41.0009L142.817 10.2162H137.752V8.39996H148.21V10.2162Z" fill="black"/>
<path d="M158.146 13.8486L151.017 6.90159L158.192 0L165.321 6.947L158.146 13.8486ZM167.9 42.9079V44.7241H157.723L153.362 40.5014V19.2972H149.61V17.481H159.787L164.148 21.7037V42.9079H167.9Z" fill="black"/>
<path d="M205.403 42.9079V44.7241H194.757L190.865 40.9555V19.2972H187.582L184.299 22.4756V42.9079H186.644V44.7241H169.761V42.9079H173.513V19.2972H169.761V17.481H179.938L183.267 20.6594L186.55 17.481H197.29L201.651 21.7037V42.9079H205.403Z" fill="black"/>
<path d="M238.925 21.7037V51.8527L234.563 56.0754H214.21L210.318 52.3068V46.9944H221.104V54.2592H228.138V39.8204L225.887 41.9998H215.382L211.021 37.7771V19.2972H207.269V17.481H217.211L221.573 21.7037V40.1836H224.856L228.138 37.0052V19.2972H224.856V17.481H234.563L238.925 21.7037Z" fill="black"/>
<path d="M258.627 42.9079V44.7241H248.919L244.558 40.5014V6.58375H241.275V4.76755H250.983L255.344 8.99023V42.9079H258.627Z" fill="black"/>
<path d="M0 68.3526L4.83035 63.6758H23.3545L26.6373 66.8542V63.2218H28.7476V75.4812H26.6373V69.6693L22.3228 65.4921H10.7862V98.1838H23.4014L27.6221 94.0973L29.0759 95.5049L24.4331 100H4.83035L0 95.3233V68.3526Z" fill="black"/>
<path d="M60.6714 77.4336V95.3233L55.8411 100H38.5831L33.7528 95.3233V77.4336L38.5831 72.7569H55.8411L60.6714 77.4336ZM45.0079 74.5731V98.1838H49.4162V74.5731H45.0079Z" fill="black"/>
<path d="M80.3599 98.1838V100H70.6523L66.2909 95.7773V61.8596H63.0082V60.0434H72.7158L77.0772 64.2661V98.1838H80.3599Z" fill="black"/>
<path d="M98.6331 98.1838V100H88.9255L84.5641 95.7773V61.8596H81.2814V60.0434H90.989L95.3504 64.2661V98.1838H98.6331Z" fill="black"/>
<path d="M106.261 100L101.899 95.7773V76.9796L106.261 72.7569H124.269L128.63 76.9796V84.426L124.269 88.6487H112.686V98.1838H123.472L127.411 94.3698L128.865 95.7773L124.504 100H106.261ZM112.686 74.5731V86.8325H117.844V74.5731H112.686Z" fill="black"/>
<path d="M148.1 81.8379V74.5731H143.176V98.1838H152.086L155.791 94.5968L157.245 96.0043L153.118 100H136.751L132.39 95.7773V76.9796L136.751 72.7569H154.056L157.479 76.0715V81.8379H148.1Z" fill="black"/>
<path d="M180.715 95.7773L176.354 100H167.021L162.66 95.7773V66.8542H159.377V65.038H168.85L172.743 68.8066V75.4812H179.308V77.2974H172.743V98.1838H175.322L179.261 94.3698L180.715 95.7773Z" fill="black"/>
<path d="M191.143 69.1245L184.014 62.1775L191.189 55.2759L198.318 62.2229L191.143 69.1245ZM200.897 98.1838V100H190.721L186.359 95.7773V74.5731H182.607V72.7569H192.784L197.145 76.9796V98.1838H200.897Z" fill="black"/>
<path d="M231.084 77.4336V95.3233L226.254 100H208.996L204.165 95.3233V77.4336L208.996 72.7569H226.254L231.084 77.4336ZM215.42 74.5731V98.1838H219.829V74.5731H215.42Z" fill="black"/>
<path d="M270 98.1838V100H259.354L255.462 96.2314V74.5731H252.179L248.897 77.7515V98.1838H251.241V100H234.359V98.1838H238.11V74.5731H234.359V72.7569H244.535L247.865 75.9352L251.148 72.7569H261.887L266.248 76.9796V98.1838H270Z" fill="black"/>
</svg>
